<svg width="46" height="47" viewBox="0 0 46 47" fill="none" xmlns="http://www.w3.org/2000/svg">
<path d="M35.4327 45.8269C35.003 45.8257 34.5746 45.7786 34.1549 45.6864C26.1645 44.0334 18.8032 40.1579 12.9183 34.5058C7.15889 28.8413 3.16446 21.6291 1.41825 13.7419C1.21235 12.7589 1.26289 11.7395 1.565 10.7817C1.86711 9.82391 2.41062 8.95998 3.14325 8.27303L8.25437 3.35358C8.51542 3.1067 8.82561 2.91764 9.16468 2.79875C9.50374 2.67985 9.86407 2.6338 10.2221 2.66358C10.5934 2.70231 10.9517 2.82191 11.2718 3.01397C11.5919 3.20603 11.866 3.46588 12.0749 3.77525L18.4638 13.218C18.7034 13.5844 18.819 14.018 18.7937 14.4551C18.7684 14.8921 18.6035 15.3095 18.3233 15.6458L15.116 19.4791C16.3934 22.3062 18.2023 24.8612 20.4444 27.0052C22.6719 29.227 25.3048 31.0011 28.2005 32.2314L32.1744 29.0752C32.5081 28.8115 32.9143 28.6555 33.3388 28.6281C33.7633 28.6007 34.1861 28.7032 34.551 28.9219L44.1983 35.1575C44.5293 35.3551 44.8114 35.6252 45.0233 35.9473C45.2351 36.2695 45.3714 36.6354 45.4218 37.0176C45.4722 37.3999 45.4354 37.7887 45.3143 38.1547C45.1931 38.5208 44.9907 38.8546 44.7221 39.1314L39.7388 44.0636C39.1727 44.6269 38.5009 45.0727 37.7619 45.3753C37.0228 45.6779 36.2313 45.8314 35.4327 45.8269ZM10.0177 5.19358L4.90659 10.113C4.49444 10.4971 4.18935 10.9818 4.02132 11.5195C3.8533 12.0571 3.82811 12.6293 3.94825 13.1797C5.57195 20.5808 9.30434 27.3532 14.6944 32.6786C20.2325 37.9961 27.1599 41.6414 34.6788 43.1947C35.2479 43.3137 35.8377 43.2896 36.3952 43.1245C36.9527 42.9595 37.4606 42.6587 37.8733 42.2491L42.8566 37.3169L33.5416 31.2986L29.2738 34.6975C29.1104 34.8268 28.9179 34.9142 28.713 34.952C28.5081 34.9899 28.2971 34.9771 28.0983 34.9147C24.5546 33.6091 21.3432 31.5365 18.6938 28.8452C15.9534 26.2861 13.8263 23.1413 12.471 19.6452C12.4137 19.4336 12.4118 19.2108 12.4655 18.9982C12.5192 18.7856 12.6267 18.5904 12.7777 18.4314L16.2277 14.3041L10.0177 5.19358Z" fill="white"/>
</svg>
