<svg width="46" height="47" viewBox="0 0 46 47" fill="none" xmlns="http://www.w3.org/2000/svg">
<path d="M22.9999 9.12915C21.5518 9.12915 20.1362 9.55856 18.9322 10.3631C17.7282 11.1676 16.7897 12.3111 16.2356 13.6489C15.6814 14.9868 15.5364 16.4589 15.8189 17.8792C16.1014 19.2995 16.7987 20.6041 17.8227 21.628C18.8466 22.652 20.1512 23.3493 21.5715 23.6318C22.9918 23.9143 24.4639 23.7693 25.8018 23.2152C27.1396 22.661 28.2831 21.7226 29.0876 20.5185C29.8921 19.3145 30.3216 17.8989 30.3216 16.4508C30.3216 14.509 29.5502 12.6467 28.1771 11.2736C26.804 9.90054 24.9417 9.12915 22.9999 9.12915ZM22.9999 21.2169C22.0572 21.2169 21.1358 20.9374 20.352 20.4137C19.5682 19.89 18.9573 19.1456 18.5966 18.2747C18.2358 17.4038 18.1415 16.4455 18.3254 15.521C18.5093 14.5965 18.9632 13.7472 19.6297 13.0807C20.2963 12.4141 21.1455 11.9602 22.0701 11.7763C22.9946 11.5924 23.9529 11.6868 24.8238 12.0475C25.6947 12.4082 26.4391 13.0191 26.9628 13.8029C27.4865 14.5867 27.766 15.5082 27.766 16.4508C27.7626 17.7127 27.259 18.9217 26.3655 19.8127C25.4721 20.7038 24.2617 21.2042 22.9999 21.2042V21.2169Z" fill="white"/>
<path d="M23 3.09802C19.02 3.10135 15.203 4.67951 12.3827 7.48782C9.56239 10.2961 7.96801 14.1064 7.94775 18.0864C7.94775 24.0536 11.2955 29.0497 13.7489 32.6914L14.1961 33.3558C16.637 36.8935 19.2555 40.3053 22.0416 43.578L23.0128 44.7152L23.9839 43.578C26.7696 40.305 29.3881 36.8932 31.8294 33.3558L32.2766 32.6786C34.7172 29.0369 38.065 24.0536 38.065 18.0864C38.0447 14.1042 36.4486 10.292 33.6255 7.48332C30.8025 4.67464 26.9822 3.09797 23 3.09802ZM30.1428 31.2091L29.6828 31.8864C27.485 35.183 24.5716 38.8758 23 40.703C21.4922 38.8758 18.515 35.183 16.3172 31.8864L15.87 31.2091C13.6083 27.8358 10.5033 23.223 10.5033 18.0352C10.5033 16.3942 10.8265 14.7691 11.4546 13.253C12.0826 11.7368 13.0031 10.3592 14.1635 9.19877C15.3239 8.03834 16.7015 7.11785 18.2177 6.48983C19.7339 5.86181 21.3589 5.53858 23 5.53858C24.6411 5.53858 26.2661 5.86181 27.7822 6.48983C29.2984 7.11785 30.676 8.03834 31.8365 9.19877C32.9969 10.3592 33.9174 11.7368 34.5454 13.253C35.1734 14.7691 35.4966 16.3942 35.4966 18.0352C35.4966 23.2741 32.4044 27.8869 30.1428 31.2091Z" fill="white"/>
</svg>
