<svg width="46" height="47" viewBox="0 0 46 47" fill="none" xmlns="http://www.w3.org/2000/svg">
<path d="M40.889 8.20911H5.11122C4.43344 8.20911 3.78343 8.47835 3.30417 8.95761C2.82491 9.43687 2.55566 10.0869 2.55566 10.7647V36.3202C2.55566 36.998 2.82491 37.648 3.30417 38.1273C3.78343 38.6065 4.43344 38.8758 5.11122 38.8758H40.889C41.5668 38.8758 42.2168 38.6065 42.696 38.1273C43.1753 37.648 43.4445 36.998 43.4445 36.3202V10.7647C43.4445 10.0869 43.1753 9.43687 42.696 8.95761C42.2168 8.47835 41.5668 8.20911 40.889 8.20911ZM38.9212 36.3202H7.23233L16.1768 27.0691L14.3368 25.293L5.11122 34.838V12.7069L20.994 28.513C21.4728 28.989 22.1205 29.2561 22.7957 29.2561C23.4708 29.2561 24.1185 28.989 24.5973 28.513L40.889 12.3108V34.6719L31.4846 25.2674L29.6829 27.0691L38.9212 36.3202ZM6.78511 10.7647H38.819L22.7957 26.6985L6.78511 10.7647Z" fill="white"/>
</svg>
